<svg viewBox="0 0 40 40" xmlns="http://www.w3.org/2000/svg">
  <defs>
    <linearGradient id="bg" x1="0" y1="0" x2="1" y2="1">
      <stop offset="0%" stop-color="#1A56DB"/>
      <stop offset="100%" stop-color="#0F3D9E"/>
    </linearGradient>
  </defs>
  <rect width="40" height="40" rx="8" fill="url(#bg)"/>
  <!-- top-left finder -->
  <rect x="6" y="6" width="12" height="12" rx="2.5" fill="white" opacity="0.95"/>
  <rect x="8.5" y="8.5" width="7" height="7" rx="1.5" fill="url(#bg)"/>
  <rect x="11" y="11" width="2" height="2" fill="white"/>
  <!-- top-right finder -->
  <rect x="22" y="6" width="12" height="12" rx="2.5" fill="white" opacity="0.95"/>
  <rect x="24.5" y="8.5" width="7" height="7" rx="1.5" fill="url(#bg)"/>
  <rect x="27" y="11" width="2" height="2" fill="white"/>
  <!-- bottom-left finder -->
  <rect x="6" y="22" width="12" height="12" rx="2.5" fill="white" opacity="0.95"/>
  <rect x="8.5" y="24.5" width="7" height="7" rx="1.5" fill="url(#bg)"/>
  <rect x="11" y="27" width="2" height="2" fill="white"/>
  <!-- data dots bottom-right -->
  <rect x="22" y="22" width="2.5" height="2.5" rx="0.5" fill="white" opacity="0.9"/>
  <rect x="26" y="22" width="2.5" height="2.5" rx="0.5" fill="white" opacity="0.6"/>
  <rect x="30" y="22" width="2.5" height="2.5" rx="0.5" fill="white" opacity="0.85"/>
  <rect x="22" y="26" width="2.5" height="2.5" rx="0.5" fill="white" opacity="0.5"/>
  <rect x="30" y="26" width="2.5" height="2.5" rx="0.5" fill="white" opacity="0.7"/>
  <rect x="22" y="30" width="2.5" height="2.5" rx="0.5" fill="white" opacity="0.9"/>
  <rect x="26" y="30" width="2.5" height="2.5" rx="0.5" fill="white" opacity="0.55"/>
  <rect x="30" y="30" width="2.5" height="2.5" rx="0.5" fill="white" opacity="0.75"/>
</svg>
